<svg id="Layer_1" data-name="Layer 1" xmlns="http://www.w3.org/2000/svg" viewBox="0 0 78 78"><defs><style>.cls-1{fill:#d1184d;}.cls-2{fill:#e8d9ca;}</style></defs><circle class="cls-1" cx="39" cy="39" r="39"/><path class="cls-2" d="M40.26,23.28a5.78,5.78,0,0,0,.25-4.86,5.83,5.83,0,0,0-11.12,3.41,5.72,5.72,0,0,0,2.18,3.36,18.38,18.38,0,0,0-9.5,11.45l31.6-7A18.37,18.37,0,0,0,40.26,23.28Zm-4.7-.58a2.11,2.11,0,0,1-1.64-.29,2.19,2.19,0,0,1-1-1.36,2.22,2.22,0,0,1,.29-1.65,2.16,2.16,0,0,1,1.37-.95,1.88,1.88,0,0,1,.47-.05,2.18,2.18,0,0,1,.47,4.3Z"/><path class="cls-2" d="M61,32.6A2,2,0,0,0,59,31a1.58,1.58,0,0,0-.43.05L18.2,40a2,2,0,0,0-1.54,2.4,2,2,0,0,0,2.41,1.54L59.46,35h0A2,2,0,0,0,61,32.6Z"/><path class="cls-2" d="M21.86,45.81A18.35,18.35,0,0,0,41.58,59.89a1,1,0,0,0,.9-1.22l-1.07-4.85a1,1,0,0,0-.76-.76,4,4,0,1,1,3.1-.69,1,1,0,0,0-.39,1l1.08,4.86a1,1,0,0,0,1.32.73,18.37,18.37,0,0,0,12-21.08Z"/></svg>