<svg id="Layer_1" data-name="Layer 1" xmlns="http://www.w3.org/2000/svg" viewBox="0 0 73.33 55.77"><defs><style>.cls-1{fill:#ff34ff;}</style></defs><path class="cls-1" d="M12.21,21.89a8.75,8.75,0,0,0-6-2.61,4.53,4.53,0,0,0-3.2.91A7,7,0,0,0,.28,24.11a12.4,12.4,0,0,0,.34,6.56c1,2.83,3.45,4.39,7,4.88.85.12,1.75.12,2.49.17a6.2,6.2,0,0,0,4-2.37,15.45,15.45,0,0,1,1.82-1.75,1.59,1.59,0,0,0,.09-.36c-.08-.56-.21-1.11-.24-1.68A11.56,11.56,0,0,0,12.21,21.89Zm.27,8.83A4.64,4.64,0,0,1,12,32a6.92,6.92,0,0,1-.7.94,5.71,5.71,0,0,1-4.55-.24c-2.13-1-3.62-2.49-3.68-4.82,0-.81-.13-1.61-.23-2.71.47-.94.48-2,1.46-3A5.61,5.61,0,0,1,6,21.88a7.8,7.8,0,0,1,2.83.92C11.59,24.72,13.15,27.24,12.48,30.72Z"/><path class="cls-1" d="M33,44l-.18-.12c-.32-1-.63-1.94-1-2.88-1.22-2.9-2.51-5.76-3.81-8.63a5.1,5.1,0,0,0-.84-1c-1.11,0-2,.17-2.4,1.14q2.17,4.61,4.36,9.2l-.21-.12c-3.12-1.63-6.28-3.2-9.44-4.76a1,1,0,0,0-.16-.06q-.25-.78-.57-1.53a2.11,2.11,0,0,0-.34-.58.88.88,0,0,0-1.13-.34l-.11,0a.53.53,0,0,1-.13.13A1.76,1.76,0,0,0,16.34,36a3.91,3.91,0,0,0,0,.49l.24,1.4a1.6,1.6,0,0,0,0,.71l.06,0s0,.06,0,.09c-.21-.28-.18-.61-.36-1a.32.32,0,0,0-.08.32c.08.36.15.72.26,1.07.35,1.09.69,2.19,1.07,3.27a27.81,27.81,0,0,0,1.08,2.74c.23.48.43,1,.66,1.45s.51,1,.77,1.47c.09.18.17.37.27.55a5.83,5.83,0,0,0,.43.73,4.47,4.47,0,0,0,1.91,1.41c.91.36,1.82.74,2.74,1.09.34.14.69.24,1,.35a.68.68,0,0,0,.27,0,1,1,0,0,0-.46-.35c-.16-.08-.35-.12-.43-.3.09-.13.18-.24.25-.36s.15-.29.22-.44l.32,0,.32,0c-.05-.36-.43-.32-.6-.59,0-.1,0-.26,0-.45l.52,0a1,1,0,0,0,.52,0,3.65,3.65,0,0,0-1.08-.46,5.93,5.93,0,0,0-2.7-1,1,1,0,0,1-.1-.16,21.23,21.23,0,0,1-.9-2.15,2.42,2.42,0,0,0-.12-.35c-.43-.93-.79-1.88-1.13-2.85-.26-.77-.52-1.54-.77-2.3l10.3,4.9c.14.3.28.6.43.9l1.86.89a7.82,7.82,0,0,0,.21-1.35l1.07-.14C33.78,44.52,33.7,44.42,33,44Z"/><path class="cls-1" d="M66.53,21.82c-1.67-2.21-3.24-4.51-5-6.61-4-4.63-8-9.17-12.07-13.7A12.12,12.12,0,0,0,47.33,0C45.44.44,44.14,1.12,44,3L64.13,24.79l3.72.8C67.42,23.11,67.34,22.89,66.53,21.82Z"/><path class="cls-1" d="M54,18.92c-.07,0-.09.16-.26-.06v-.34c0-.1.11-.08,0-.34L53.16,18c-.06-.18-.1-.32-.17-.51-.12.05-.24.08-.34.13a5.85,5.85,0,0,0-.86.53c-.28.22-.69.15-1,.4-.08.07-.17.12-.26.19a3.33,3.33,0,0,1-.32.24c-.36.21-.73.4-1.09.6l-.24.16a5,5,0,0,1-.52.39c-.3.19-.63.34-.94.53l-1.1.67L46,21c-1.32,0-2.33.3-2.88,1.41.14.3.28.59.43.88l-.12.09,0,0c-.34.29-.68.6-1,.87s-.79.57-1.18.86a.15.15,0,0,0-.06.05,1.41,1.41,0,0,1-.57.47.86.86,0,0,0-.2.13A15.58,15.58,0,0,1,39,26.89c-.18.16-.36.32-.53.5l-.16-.05a24.68,24.68,0,0,1-2.67-.87,1.94,1.94,0,0,0-.36.05,12.44,12.44,0,0,1-1.19.81l-.51.31a15,15,0,0,1-.27-1.76c0-.14-.19-.27-.33-.4l0,0c-.22-.46-.77-.17-.83-.17a10.74,10.74,0,0,0-1.78-.63,22,22,0,0,0-5.5-.47,10.36,10.36,0,0,1-1.44-.09c3.72-5,3.68-3.85,1.42-7.6h0A8.6,8.6,0,0,0,23,14a6.9,6.9,0,0,0-5-1.66,4.7,4.7,0,0,0-2.83.89,6.68,6.68,0,0,0-2.6,3.2l.56.12c-.27.16-.51.32-.43.48.18.34.55.63.57,1,.14,1.88,1.27,3.4,1.89,5.1a30.12,30.12,0,0,0,1.29,3,23.09,23.09,0,0,1,1.75,4.1,4.24,4.24,0,0,0,.64,1.34c.14.22.49.34.82.54l1.58-.83a2.32,2.32,0,0,0,.33-2.2A10.66,10.66,0,0,1,21,27.53c0-.19.1-.44.14-.63a19.76,19.76,0,0,1,8,.1l3-.51c.28-.32.59-.67.84-1a23.75,23.75,0,0,1-.13,2.67h0a7.19,7.19,0,0,0-2.44,4.92c-.21,1.79.38,3.75,2,5.94a6.94,6.94,0,0,0,3,2.33,9.21,9.21,0,0,0,5.06.85,9,9,0,0,0,5.06-2.68c1.58-1.9,1.16-4.49-.89-7.62-.49-.75-1.11-1.5-1.57-2.13a12.24,12.24,0,0,0-2.38-1.66l.95-.49a3.43,3.43,0,0,0,.82-.49,3.48,3.48,0,0,1,.58-.45c.13-.08.23-.2.35-.28.34-.24.65-.55,1.18-.38a.35.35,0,0,0,.29,0l.08,0,5.6,11.46.47.19a.74.74,0,0,0-.49.65,2.8,2.8,0,0,0,.06.71,2,2,0,0,1,0,1.13,2.34,2.34,0,0,0,0,.7c0,.07.1.13.26.33a17.11,17.11,0,0,0,.14-2.31l.24.35.34-.48.84-.52h0l.18.08c.05.13.09.27.14.43l.29-.14c0-.29,0-.58,0-.87,0-.06,0-.11-.1-.16A2.34,2.34,0,0,0,52.78,36c-.51-1.49-.94-3-1.55-4.45-1.08-2.5-2.21-5-3.35-7.44L48,24l0,0c.11-.27.35-.31.53-.46l.55-.48a8.94,8.94,0,0,0,.88-.75,5.1,5.1,0,0,1,1.35-1,2.34,2.34,0,0,0,.73-.43,3.78,3.78,0,0,1,.68-.51,2,2,0,0,0,.31-.19c.36-.4.83-.59,1.19-1,0,0,.11,0,0-.24A.77.77,0,0,1,54,18.92ZM22.79,20.24a14.57,14.57,0,0,1-2.43,3.43,7.91,7.91,0,0,1-.71.68c-.12-.16-.26-.23-.24-.32a4.74,4.74,0,0,0-.51-2.94,5.21,5.21,0,0,0-1.4-2.44c-.23-.17-.26-.48-.39-.73-.36-.71-.71-1.42-1.11-2.12a.91.91,0,0,1,.12-1.18,5.88,5.88,0,0,1,1.47-.29,6.67,6.67,0,0,1,2.39.55C22.09,16.11,23.27,17.81,22.79,20.24Zm20,13.46c.66,2.14.48,3.92-1.35,4.83-.65.31-1.22.7-2,1.18-1.08-.05-1.93.32-3.43-.12a8.13,8.13,0,0,1-1.36-1.31,8.17,8.17,0,0,1-1.21-2.69c-.35-3,.61-5.21,3.88-5.92a5.08,5.08,0,0,1,1.32-.09,10.08,10.08,0,0,1,1.24.25A7.32,7.32,0,0,1,42.83,33.7Z"/><path class="cls-1" d="M21.68,50.58c0-.17-.22-.34-.37-.5a30.44,30.44,0,0,1-.14,3.17,7.38,7.38,0,0,0,.07,2.1c0,.13.22.25.38.42.21-.16.48-.27.49-.39.09-.64.38-1.34.11-1.92A9.45,9.45,0,0,1,21.68,50.58Z"/><path class="cls-1" d="M21.27,50l0,0V50Z"/><path class="cls-1" d="M73.22,35a6.6,6.6,0,0,1-.52-2.35c.2-.25.35-.57.52-.79-1.12-2.78-1.3-3.08-2.68-3.84a2.4,2.4,0,0,0-2.89.05,5,5,0,0,0-.3,4.22,4.18,4.18,0,0,0,4.94.69,12.64,12.64,0,0,1-.12,1.84,5.57,5.57,0,0,0,.07,1.82c0,.11.22.21.38.36.21-.14.48-.23.49-.33C73.2,36.11,73.49,35.5,73.22,35Z"/></svg>