<?xml version="1.0" encoding="utf-8"?>
<!-- Generator: Adobe Illustrator 24.2.0, SVG Export Plug-In . SVG Version: 6.00 Build 0)  -->
<svg version="1.1" id="Layer_1" xmlns="http://www.w3.org/2000/svg" xmlns:xlink="http://www.w3.org/1999/xlink" x="0px" y="0px"
	 viewBox="0 0 134.4 366.5" style="enable-background:new 0 0 134.4 366.5;" xml:space="preserve">
<style type="text/css">
	.st0{fill:#00FFFF;}
	.st1{fill:#FF34FF;}
</style>
<polygon class="st0" points="40.5,55 40.5,63.6 62,63.6 62,82.5 70.3,82.5 70.3,63.6 81.9,63.6 81.9,88.5 90.3,88.5 90.3,55 "/>
<polygon class="st1" points="86.8,113.5 84.4,107.5 91,107.9 91,99.1 84.4,99.4 86.7,93.5 78.3,90.7 76.8,96.6 72.3,92.9 67,100 
	72.4,103.5 67.2,106.9 72.2,114.1 76.8,110.4 78.3,116.1 "/>
<path class="st0" d="M68,145.7l22.9-18.3v-4.6H40.5v8.6h31.1l-0.3,0.3l-11.5,10.1l-4.3,3.8l1.2,1.1c2.6,2.4,5.7,5.2,9.2,8.3
	c2.1,1.8,4.1,3.5,6,5H40.5v8.6h50.4V164L68,145.7z"/>
<path class="st0" d="M68,201.9l22.9-18.3V179H40.5v8.6h31.1l-0.3,0.3l-11.5,10l-4.3,3.8l1.2,1.1c2.6,2.4,5.7,5.2,9.2,8.3
	c2.1,1.8,4.1,3.5,6,5H40.5v8.6h50.4v-4.6L68,201.9z"/>
<path class="st0" d="M48.4,268.2c-0.1-0.3-0.2-0.7-0.2-1c0-0.1,0.1-0.2,0.1-0.3c0.2-0.2,0.4-0.4,0.6-0.5l17-10.8l24.3,15.6V261
	l-16.4-10.6l16.5-10.8v-10L66.6,245l-26.1-15.1v10l18.2,10.4l-12.8,8.2c-1.6,1-3.1,2.3-4.2,3.8c-0.9,1.4-1.4,3.1-1.3,4.8
	c0,0.8,0.1,1.5,0.4,2.2c0.2,0.7,0.5,1.5,0.9,2.1l0.7,1.1l7.2-2.8L48.4,268.2z"/>
<path class="st0" d="M49.4,313.6l-0.9-1.5c-0.1-0.3-0.2-0.7-0.2-1c0-0.1,0.1-0.2,0.1-0.3c0.2-0.2,0.4-0.4,0.6-0.5l17-10.8l24.3,15.6
	v-10.2l-16.5-10.7l16.5-10.8v-10l-23.7,15.5l-26.1-15.2v10l18.2,10.4l-12.8,8.2c-1.6,1-3.1,2.3-4.2,3.8c-0.9,1.4-1.4,3.1-1.4,4.8
	c0,0.8,0.1,1.5,0.4,2.3c0.2,0.7,0.5,1.5,0.9,2.1l0.7,1.1L49.4,313.6z"/>
<path class="st0" d="M134.1,269.2c-0.1-0.8-0.2-1.6-0.3-2.5c0-1.8-0.1-3.6-0.5-5.3c-0.5-2.8-0.7-5.7-0.5-8.5c0.1-1.5,0-3.1-0.2-4.6
	c-0.7-3.9-1-7.8-1-11.7c0-0.8,0-1.7-0.1-2.5c-0.5-3.6-0.8-7.3-0.9-11c0-0.7,0-1.4-0.1-2.1c-0.5-3.2-0.8-6.4-0.9-9.6
	c0-0.6,0-1.2-0.1-1.8c-0.4-3.6-0.7-7.3-0.9-11s-0.6-7.1-0.6-10.6c-0.1-0.8-0.2-1.7-0.4-2.5c0.1-0.9,0.3-1.8,0.3-2.4
	c-0.1-1.6-0.3-2.8-0.3-3.9c0-2-0.1-4-0.4-6c-0.1-0.9,0-1.9,0.1-2.8c0.2-1.4,0.2-2.8,0.1-4.2c-0.2-1.8-0.4-3.5-0.3-5.3
	c0-7,0-14.1,0-21.1c0-2.1-0.2-4.3-0.3-7.1c0.2-1,0.4-2.8,0.7-5.1c-0.5-2.6-0.5-5.3-0.2-8c0.2-2.1,0.3-4.3,0.3-6.4
	c0-2.1,0.1-4.3,0.4-6.4c0.1-1.9,0.1-3.8,0-5.7c-0.1-1.2-0.2-2.4-0.1-3.5c0.3-1.7,0.2-3.4-0.1-5.1c0.2-1.3,0.3-2.3,0.4-3.4
	s0.1-2.2,0.1-3.2c0-6.3,0.3-12.6,0.9-18.9c-0.2-1.1-0.4-2.3-0.6-3.8c0.1-0.6,0.1-1.2,0-1.7c-0.1-0.9-0.3-1.8-0.6-2.7
	c-0.5-1.3-0.5-2.8,0-4.1c-0.8-2.3-1.5-4.5-2.2-6.6c0.1-0.8,0.2-1.5,0.3-2c-0.9-2.3-2.1-4.5-3.7-6.4c-2.6-3.4-5-7-7.4-10.6
	c-2.2-3.3-4.9-6.3-8-8.9c-5-4-10.3-7.7-15.8-11c-5.8-3.6-12.1-6.1-18.8-7.5C69.2,1,66,0.5,62.8,0.2c-3.3-0.3-6.7-0.3-10,0.2
	c-5.8,1-11.4,3.2-16.5,6.3c-7.1,4.4-13.6,9.8-19.2,16.1c-1.4,1.6-2.6,3.4-3.4,5.4v2.8c-1.1,2.4-2.3,4.8-3.4,7.3
	c-0.7,1.6-1.5,3.2-2.2,4.8c-0.4,1.1-0.7,2.3-0.9,3.5c0.2,1.1,0.4,2,0.5,2.8c-0.5,1.9-1.1,3.7-0.5,5.6L9,57.5c0,0.6,0.1,1.2,0.1,1.8
	c0,0.5-0.1,1-0.3,1.5c-0.2,0.7-0.3,1.5-0.3,2.2c-0.6-0.5-1.2-1-1.8-1.5c-0.3,0.6-0.6,1.1-0.9,1.6c0.4,1.9,0.4,3.8,0.1,5.6
	c-0.5,2.3-0.6,4.7-0.3,7c0,0.4,0,0.8,0,1.2c-0.1,2.2-0.3,4.3-0.4,6.5c0,2-0.1,3.9-0.3,5.9c-0.6,2.8-0.6,5.8,0,8.6
	c-1.4,3.1-1.1,6.6-1.5,9.8L1.9,109c-0.3,3.2-0.8,6.4-0.9,9.6c-0.4,13.5-0.7,27-1,40.4c0,0.8,0,1.6,0.1,2.4c0.2,2.9,0.6,5.9,0.7,8.8
	c0.2,2.1,0.2,4.3,0.2,6.4c-0.1,1.3-0.1,2.5,0.2,3.8c0.5,2.3,0.7,4.6,0.6,7c0,0.7,0.1,1.3,0.2,2c0.3,1.8,0.7,3.7,0.8,5.5
	c0.1,2.1,0.5,4.1,0.7,6.1c0.3,2.7,1.2,5.4,0.4,7.9c0.3,1.9,0.6,3.6,0.9,5.2c0.2,1.3,0.3,2.5,0.4,3.8c0.3,2.4,0.8,4.8,1.1,7.3
	c0.3,1.2,0.4,2.6,0.1,3.8c-0.1,0.3,0.1,0.8,0.1,1.1c0.1,2.4,0.8,4.6,0.7,7c-0.1,1.8-0.1,3.5-0.1,5.3c0,0.8,0.1,1.6,0.1,2.4
	c0.1,1.1,0.3,2.1,0.3,3.2c0,3.7-0.1,7.5-0.2,11.2c-0.1,6.6-0.3,13.2-0.4,19.7c0,1.1,0.1,2.2,0.3,3.2c0.3,1.5,0.6,3,0.8,4.5
	c-0.1,0.2-0.1,0.4-0.2,0.6c-0.2,0.9-0.3,1.9-0.4,2.8c0,1.5-0.6,2.9-1.5,4c-0.1,2.5-0.2,4.7-0.3,6.9l-1,1.9c0,2.5,0.4,4.9,1.3,7.2
	c1.3,4,2.4,8.1,3.4,12.2c1,3.8,2.5,7.5,4.6,10.8c3.5,5.2,7.4,10.1,11.6,14.6c4.5,5,9.8,9.1,15.8,12.2c2.9,1.5,5.9,2.9,8.9,4
	c3.2,1.2,6.6,2,10,2.5c6.3,0.5,12.6-0.1,18.7-1.7c8.7-2.4,17.1-5.9,24.9-10.5c2-1.2,3.8-2.7,5.4-4.4l1-2.7c2-2,4-4.1,6-6.1
	c1.3-1.4,2.7-2.7,3.9-4.1c0.8-1,1.5-2,2.2-3.1c0.2-1.1,0.3-2,0.5-2.9c1.2-1.7,2.4-3.3,2.6-5.3c-0.3-1-0.5-2-0.8-3
	c0.2-0.6,0.4-1.2,0.6-1.8c0.2-0.5,0.5-1,0.8-1.4c1.3-2.1,2.2-4.4,2.8-6.8c0.1-0.7,0.1-1.4,0-2.1c-0.5-0.5-1-1-1.4-1.4
	s-0.7-0.9-1.1-1.4c-3.1,4.3-3.5,5.1-4.5,9.6c0,0.2-0.4,0.5-0.6,0.7c-1.3-0.5-2.4-1.3-3.2-2.5c-2.4,0.6-3.9,2.4-5.1,4.2
	c-1.6,2.7-3.6,5.3-5.7,7.7c-3.1,4.7-7.1,8.8-11.1,12.8c-1.1,1.1-2.3,2.1-3.7,3c-3.7,2.5-7.6,4.7-11.7,6.4c-4.7,1.9-9.7,2.9-14.7,2.9
	c-2.4,0.1-4.7-0.3-7-1c-2.6-0.9-5-2-7.6-3.1c-5.2-2.1-9.8-5.3-13.5-9.5c-2.6-2.9-5-5.8-7.4-8.9c-3.1-3.9-5.3-8.4-6.5-13.2
	c-0.9-3.9-2-7.8-2.9-11.7c-0.4-1.7-0.6-3.5-0.9-5.2c-0.1-0.9-0.3-1.8-0.5-2.8l0.3-0.7c-0.3-0.3-0.5-0.6-0.8-0.8
	c-0.2-3.6,0.4-7.4-0.9-10.8c0.2-0.3,0.4-0.7,0.6-1c0.1-2.8,0.1-5.8,0.2-8.8c0-0.5,0-1-0.1-1.5c-0.4-1.8-0.4-3.6-0.3-5.4
	c0-3.1,0.1-6.3,0.2-9.4s0.1-6.1,0.3-9.1s-0.5-6.3,0-9.4c0-0.5,0-1-0.1-1.5c-0.1-0.7-0.2-1.4-0.2-2c-0.1-2.6-0.7-5.3-0.5-7.9
	c0-0.3,0-0.6-0.1-0.9c-0.5-2.6-0.7-5.2-0.8-7.9c0-1.5-0.2-2.9-0.6-4.4c-0.2-0.8-0.4-1.7-0.3-2.6c0.1-2.2-0.1-4.3-0.4-6.4
	c-0.5-2.1-0.7-4.2-0.8-6.4c0-0.8-0.1-1.6-0.3-2.3c-0.4-2.7-0.8-5.4-1.1-8.1c-0.3-2.9-0.2-5.9-0.6-8.8c-0.5-4-0.7-8-0.7-12
	c0-2.2,0.1-4.3,0.1-6.5c0-5,0.5-10-0.1-15c-0.1-0.6,0-1.2,0.1-1.8c0.2-1,0.2-1.9,0.1-2.9c0-0.6,0-1.2,0.1-1.8
	c0.1-0.9,0.2-1.7,0.3-2.6c-0.1-6.7,1-13.3,1.2-19.9c0-0.2,0-0.4,0.1-0.6c0.4-1.6,0.6-3.3,0.6-5c0.1-1.6,0.4-3.3,0.5-4.9
	c0.1-3,0.5-6,0.9-9.4c-0.6-2.3-0.5-4.7,0.2-6.9c0.2-0.6,0.2-1.2,0.2-1.8c0.1-3.1,0.2-6.3,0.2-9.4c-0.1-2.3,0.1-4.6,0.6-6.9
	c-0.2-1.1-0.5-2-0.7-3l-3.5-3c0.2-1.9,0.1-3.8-0.3-5.7c0-0.2,0.2-0.5,0.3-0.8c1.4,0.1,2.7,0.7,3.8,1.5c2-1.2,2.8-3.2,3.2-5.2
	c0.5-3,1.4-5.8,2.6-8.6c1.2-5.2,3.5-10,5.7-14.8c0.6-1.3,1.4-2.6,2.3-3.7c2.5-3.3,5.3-6.3,8.5-8.9c3.6-3,7.9-5.2,12.5-6.4
	c2.2-0.7,4.4-1,6.7-0.9c2.7,0.2,5.3,0.7,8,1c5.6,0.7,10.9,2.6,15.7,5.6c3.4,2.1,6.7,4.2,9.9,6.5c4.2,2.9,7.8,6.5,10.6,10.8
	c2.2,3.4,4.5,6.8,6.7,10.2c1,1.5,1.7,3.1,2.6,4.6l1.4,2.5V56l1,0.6c1.1,2.6,1.8,5.3,3.1,7.8c0.1,2.7-0.1,5.3-0.3,8
	c-0.4,3.1-0.4,6.2,0.1,9.2c-0.4,2.8-0.6,5.7-0.4,8.5c0.1,1.3,0.1,2.6-0.1,3.9c-0.5,3.3-0.3,6.6-0.5,10c0,1.3-0.1,2.6-0.2,3.9
	c-0.1,0.8-0.2,1.7-0.2,2.5c0,3.7,0.1,7.4,0,11.1c0,3.2,0,6.5-0.3,9.6c-0.3,3-0.3,6,0.1,9c-0.4,1.2-0.9,2.5-1.4,3.9
	c0,0.4-0.1,1-0.1,1.6c0,10.9,0,21.7,0,32.6c0,0.8,0,1.7,0.1,2.5c0.3,3.1,0.6,6.1,0.8,9.2c0.3,4,0.9,8,1.6,11.9
	c0.7,3,1.1,6.1,1.2,9.1c0,0.6,0.1,1.2,0.3,1.7c0.5,2.8,0.7,5.6,0.8,8.5c0,1.2,0.1,2.4,0.3,3.5c0.1,0.8,0.2,1.6,0.2,2.5
	c0,1.7,0.3,3.4,0.8,5.1c-0.3,2.1-0.3,4.1-0.1,6.2c0.5,4.1,0.8,8.3,0.9,12.4c0,1.4,0.2,2.8,0.3,4.3c-0.4,1.7-0.4,3.5-0.2,5.2
	c0.5,3.8,0.8,7.5,0.8,11.3c0,0.7,0,1.4,0.1,2.1c0.5,3.4,0.5,6.9,0,10.3l0.8,0.7c0.2-1.6,0.3-3,0.4-4.4c0.3,0.6,0.3,1.7,1.2,1.9
	c0.1-0.5,0.3-1.1,0.4-1.6s0.4-1,0.6-1.5c2.9,0.9,3.2,0.9,5.3,0c0.7-2.1,2.3-3.6,2.8-6.5C134.4,272,134.3,270.6,134.1,269.2z
	 M116.4,174.2c-0.1-0.2-0.2-0.4-0.2-0.6c0-3.7,0-7.3,0-11l0.2-0.1c0.1,2.8,0.3,5.6,0.4,8.4h0.2L116.4,174.2z"/>
</svg>
