<svg id="Layer_1" data-name="Layer 1" xmlns="http://www.w3.org/2000/svg" xmlns:xlink="http://www.w3.org/1999/xlink" viewBox="0 0 31.43 10.68"><defs><style>.cls-1{fill:none;}.cls-2{opacity:0.3;}.cls-3{clip-path:url(#clip-path);}.cls-4{fill:#ff34ff;}</style><clipPath id="clip-path"><rect class="cls-1" x="-2291.59" y="-212.51" width="1920" height="1080"/></clipPath></defs><g class="cls-2"><g class="cls-3"><image width="1920" height="1080" transform="translate(-1905.06 -212.51)" xlink:href="../../render01.png"/></g></g><path class="cls-4" d="M3.52,9.89a6.49,6.49,0,0,0,6.54-6.53c0-.1,0-.2,0-.3a4.6,4.6,0,0,0,1.14-1.19,4.46,4.46,0,0,1-1.31.36,2.33,2.33,0,0,0,1-1.27,4.7,4.7,0,0,1-1.46.56,2.3,2.3,0,0,0-4,1.57,2.24,2.24,0,0,0,.06.52A6.48,6.48,0,0,1,.78,1.21a2.31,2.31,0,0,0,.71,3.07A2.28,2.28,0,0,1,.45,4V4A2.3,2.3,0,0,0,2.29,6.27a2,2,0,0,1-.6.08,2.12,2.12,0,0,1-.44,0A2.33,2.33,0,0,0,3.4,7.91a4.66,4.66,0,0,1-2.85,1,4.93,4.93,0,0,1-.55,0,6.51,6.51,0,0,0,3.52,1"/><path class="cls-4" d="M28.38,0H24.09A3.06,3.06,0,0,0,21,3.05V7.63a3.06,3.06,0,0,0,3.06,3.05h4.29a3.06,3.06,0,0,0,3.05-3V3.05A3.06,3.06,0,0,0,28.38,0Zm2.27,7.63A2.27,2.27,0,0,1,28.38,9.9H24.09a2.27,2.27,0,0,1-2.27-2.27V3.05A2.27,2.27,0,0,1,24.09.78h4.29a2.27,2.27,0,0,1,2.27,2.27Zm-4.4-5.14a2.71,2.71,0,0,0-2,.78,2.87,2.87,0,0,0-.87,2.06,2.84,2.84,0,0,0,2.84,2.83,2.77,2.77,0,0,0,2-.83,2.9,2.9,0,0,0,.84-2,2.77,2.77,0,0,0-.7-2A2.92,2.92,0,0,0,26.25,2.49Zm0,4.72a1.88,1.88,0,0,1-1.88-1.88A1.93,1.93,0,0,1,24.93,4a1.77,1.77,0,0,1,1.24-.51h0a1.74,1.74,0,0,1,1.89,1.88A1.89,1.89,0,0,1,26.23,7.21Zm2.91-5.46a.66.66,0,1,0,.66.66A.65.65,0,0,0,29.14,1.75Z"/></svg>