<svg id="Layer_1" data-name="Layer 1" xmlns="http://www.w3.org/2000/svg" xmlns:xlink="http://www.w3.org/1999/xlink" viewBox="0 0 220.55 1"><defs><style>.cls-1{fill:none;}.cls-2{opacity:0.3;}.cls-3{clip-path:url(#clip-path);}.cls-4{fill:aqua;}</style><clipPath id="clip-path"><rect class="cls-1" x="-2290.75" y="-243.34" width="1920" height="1080"/></clipPath></defs><g class="cls-2"><g class="cls-3"><image width="1920" height="1080" transform="translate(-1904.22 -243.34)" xlink:href="../../render01.png"/></g></g><path class="cls-4" d="M.27.88C-.42.79.29.73,1.43.65c1,0,2.09-.05,3.31-.06,3.3,0,6.63,0,10-.06,6.81,0,13.68,0,20.46-.09H38c2.87,0,5.75,0,8.56,0h1L64.69.33,80.36.25h.48L94.17.2c3.65,0,7.32,0,11,0,1.66,0,3.49,0,5.25,0l27.71,0H151l7.61,0h18.19l4.76,0h3.81c4.14,0,8.22,0,12.38,0,4,0,8,0,12,0h4.39l-.89.13,5.65.1c-.17.06-1.25,0-1.8.07l-1.83.07c.66.06,1.72,0,2.54,0h2.78a6.58,6.58,0,0,1-1.26.06c-6,0-12.06,0-18,.08h-4.3c-3.34,0-6.66,0-10,0s-6.69,0-10,0c-6.7,0-13.34,0-20,.08l-13.3.07-8.53,0c-2.69,0-5.44,0-8.06,0h-.48L111.33.92l-7.12,0h-23C80.15,1,79,1,78,.94c-4.8-.1-9.74-.06-14.66,0l-5.22,0L49.52,1c-3.78,0-7.64,0-11.47,0H18.42C13.81,1,9.23,1,4.64,1,3,1,1.47.94.27.88Zm103.19,0c-5.75,0-11.44,0-17.12,0Z"/></svg>