<svg id="Layer_1" data-name="Layer 1" xmlns="http://www.w3.org/2000/svg" xmlns:xlink="http://www.w3.org/1999/xlink" viewBox="0 0 79.99 81.01"><defs><style>.cls-1{fill:none;}.cls-2{opacity:0.3;}.cls-3{clip-path:url(#clip-path);}.cls-4{fill:#ff34ff;}.cls-5{fill:#001010;}</style><clipPath id="clip-path"><rect class="cls-1" x="-2269.96" y="-16.65" width="1920" height="1080"/></clipPath></defs><g class="cls-2"><g class="cls-3"><image width="1920" height="1080" transform="translate(-1883.43 -16.65)" xlink:href="../../render01.png"/></g></g><path class="cls-4" d="M80,41c0-1-.06-2.09-.14-3.13,0-.12,0-.24.05-.36a9.07,9.07,0,0,0,0-2.27c-.26-2.24-.49-4.5-.92-6.71s-1.1-4.69-1.74-7c-.17-.65-.39-1.41-1.15-1.61-.93.88.61,2.2-.49,3.17A38.69,38.69,0,0,0,73.2,19a40.94,40.94,0,0,0-7-9,30.19,30.19,0,0,0-9.56-6.44C51.4,1.25,45.81.86,40.28.06a10.71,10.71,0,0,0-2.93.13c-1.93.26-3.86.59-5.79.92-.15,0-.26.3-.47.59l3.14.52c0,.12,0,.24,0,.36a38.48,38.48,0,0,0-9.6,3A9.84,9.84,0,0,0,18.9,6.8c-1.5.79-2.87,1.87-4.37,2.69A15.88,15.88,0,0,0,9.05,15a56.36,56.36,0,0,0-7.7,18.08c-.22-1.23-.39-2.23-.6-3.4-.25.31-.41.42-.42.53C.23,32.29.16,34.4.06,36.51a49.9,49.9,0,0,0,1.55,14.8A41.79,41.79,0,0,0,13.19,71.94c1.87,1.79,4,3.18,5.63,5.38a7.89,7.89,0,0,0,3.54,2.32A17.54,17.54,0,0,0,28.91,81c2.66-.06,5.32,0,8,0a33.81,33.81,0,0,0,6.24-.65c1.08-.21,2.13-.46,3.18-.73A39,39,0,0,0,80,41Z"/><path class="cls-5" d="M69.63,35.26a13.29,13.29,0,0,0-.71-3.61c-.08-.22-.34-.38-.51-.55l-.77.48c-.28-.55-.56-1.09-.82-1.63a23.23,23.23,0,0,0-4.9-6.53A6.61,6.61,0,0,0,59,21.75a42.72,42.72,0,0,0-6.26-.9c-.06,0-.14.09-.27.18,0,.21,0,.51.13.68,1.78,2.3,3.15,4.89,5.33,6.89a11.67,11.67,0,0,1,2.86,3.77,21,21,0,0,1,.69,16,23.13,23.13,0,0,1-8.69,11.39,22.31,22.31,0,0,1-13.84,4.48c-1.15,0-2.29,0-3.44,0A19.91,19.91,0,0,1,25.26,61a14.23,14.23,0,0,1-5.71-6.44A16.79,16.79,0,0,1,18.31,46a25.9,25.9,0,0,1,4-11.09,25.58,25.58,0,0,1,6.1-6.52,22.4,22.4,0,0,1,4.78-3.28c2.12-.86,4.24-1.73,6.37-2.58a1.76,1.76,0,0,1,.57,0l1,1.16c.33.65,0,1.32.77,1.53.14-.18.38-.36.42-.58a10.23,10.23,0,0,0,.18-1.83c0-2.11-1-3.38-3-3.65a16.68,16.68,0,0,0-8.84.91c-3.6,1.51-7,3.32-9.6,6.37-.4.47-.83.91-1.2,1.32a2.35,2.35,0,0,0-2.19.89,15.57,15.57,0,0,0-2.6,4.87c-.52,1.41-.91,2.86-1.45,4.26a30,30,0,0,0-1.93,11.91,18.86,18.86,0,0,0,3.94,11,24,24,0,0,0,8.48,7,33.41,33.41,0,0,0,6.56,2.44c-2,.71-3.82-.68-6.22.13a28,28,0,0,0,4,.75c4.93.09,9.87.3,14.78-.49A30.25,30.25,0,0,0,56,65.34a33.14,33.14,0,0,0,6.79-6.22,26.3,26.3,0,0,0,4.36-7.51,42.05,42.05,0,0,0,1.64-6.38A39.26,39.26,0,0,0,69.63,35.26Z"/><path class="cls-5" d="M48.16,43.22a8.78,8.78,0,0,1-2.51,1.28c-.88-.19-1.56-.38-2.24-.46-.21,0-.45.21-.76.37-.13.65-.26,1.33-.41,2.05-.69.35-1.24,1-2.06.95l-1.24-1.53-1,.28c-.13,1-.25,1.94-.37,2.91l-1,.7-1.61-1.63-1.88.3A10,10,0,0,0,32.5,50c-.1.61,0,1.24-.14,1.84,0,.19-.28.35-.6.71-.3-1.23-.52-2.25-.79-3.26a3.66,3.66,0,0,0-.54-1.17c-.11-.16-.46-.16-.81-.26L28.9,49.3c.25,1.75.47,3.3.65,4.62-.77,1.4-2.34,1.67-2.83,2.88a2.94,2.94,0,0,0,.63,2.36,9.15,9.15,0,0,1,2.76-1.45c1-.46,2-.88,3.06-1.32.67.91,1.28,1.76,1.92,2.64.06.65.13,1.34.2,2l.22,0c.11-.65.22-1.3.31-1.85.72-1.12,1.38-2.15,2-3.06.06-1,.11-1.91.17-2.78.78.12.7.77.92,1.21s.45,1,1.1,1c.82-.21,1-.89,1.08-1.6.08-.86.08-1.72.12-2.47.7-.55,1.22-1,2-.93.31.61.59,1.25.94,1.85a.87.87,0,0,0,1.13.41c1.35-1.12.92-2.74,1.11-4.32l2.77-1.77,1.5.35c1.22-.47.8-1.8,1.57-2.47C54.44,43,57,41.76,58.92,39.5l-1-.71c-.86.32-1.71.56-2.5.93s-1.36.82-2,1.23a6.09,6.09,0,0,1-2.31,1.22c-.33-.84-.58-1.59-.92-2.29a4.38,4.38,0,0,0-.74-.87,1.33,1.33,0,0,0-1.54,1.08C48,41.05,48.69,42,48.16,43.22Z"/><path class="cls-5" d="M34,40a6.29,6.29,0,0,0-1.3-5.43l-.93-.36a3.39,3.39,0,0,0-2.83,3.17c.26,2.06.84,3.77,2.32,4.92.27,2.08.27,2.08.89,2.6.62-.66-.07-1.33.07-2.27Z"/><path class="cls-5" d="M40.49,31.46a2.34,2.34,0,0,0,0,.79,7,7,0,0,0,3.82,5.47,2.55,2.55,0,0,0,2-2.38C46.56,33.69,45,30.79,43.5,30A2.05,2.05,0,0,0,40.49,31.46Z"/></svg>