<svg id="Layer_1" data-name="Layer 1" xmlns="http://www.w3.org/2000/svg" viewBox="0 0 33.6 33.6"><defs><style>.cls-1{fill:#534741;}</style></defs><polygon class="cls-1" points="16.8 6.94 18.07 15.53 26.66 16.8 18.07 18.07 16.8 26.66 15.53 18.07 6.94 16.8 15.53 15.53 16.8 6.94"/><polygon class="cls-1" points="24.93 5.43 25.39 8.49 28.45 8.95 25.39 9.4 24.93 12.47 24.48 9.4 21.41 8.95 24.48 8.49 24.93 5.43"/><path class="cls-1" d="M28.8,33.6H4.8A4.8,4.8,0,0,1,0,28.8V4.8A4.8,4.8,0,0,1,4.8,0h24a4.8,4.8,0,0,1,4.8,4.8v24A4.8,4.8,0,0,1,28.8,33.6Zm-24-32A3.21,3.21,0,0,0,1.6,4.8v24A3.21,3.21,0,0,0,4.8,32h24A3.21,3.21,0,0,0,32,28.8V4.8a3.21,3.21,0,0,0-3.2-3.2Z"/></svg>