<svg id="Layer_1" data-name="Layer 1" xmlns="http://www.w3.org/2000/svg" viewBox="0 0 121.77 367.77"><defs><style>.cls-1{fill:#534741;}.cls-2{fill:#d1184d;}</style></defs><polygon class="cls-1" points="34.91 52.89 34.91 61.49 56.44 61.49 56.44 80.43 64.77 80.43 64.77 61.49 76.39 61.49 76.39 86.42 84.72 86.42 84.72 52.89 34.91 52.89"/><polygon class="cls-2" points="81.21 111.42 78.82 105.42 85.41 105.78 85.41 96.94 78.87 97.3 81.19 91.4 72.76 88.62 71.24 94.49 66.74 90.77 61.42 97.9 66.82 101.4 61.6 104.8 66.63 111.97 71.2 108.25 72.77 113.98 81.21 111.42"/><path class="cls-1" d="M62.41,143.62l22.93-18.28v-4.62H34.91v8.61H66l-.35.28L54.15,139.7l-4.3,3.82,1.2,1.13c2.56,2.42,5.66,5.2,9.22,8.25,2.11,1.82,4.11,3.5,6,5H34.91v8.61H85.34V161.9Z"/><path class="cls-1" d="M62.41,199.74l22.93-18.27v-4.62H34.91v8.6H66l-.35.28L54.15,195.82l-4.3,3.82,1.2,1.13c2.56,2.42,5.66,5.2,9.22,8.26,2.11,1.82,4.11,3.49,6,5H34.91v8.61H85.34V218Z"/><path class="cls-1" d="M42.89,266.12a2,2,0,0,1-.19-1,.85.85,0,0,1,.13-.3,1.93,1.93,0,0,1,.6-.55l17-10.79,24.27,15.62V258.93l-16.46-10.7,16.46-10.76v-10L61,242.92,34.91,227.77v10l18.16,10.44-12.77,8.2a14.72,14.72,0,0,0-4.24,3.78A8.29,8.29,0,0,0,34.71,265a8.54,8.54,0,0,0,.36,2.25,9.41,9.41,0,0,0,.87,2.14l.66,1.09,7.21-2.82Z"/><path class="cls-1" d="M43.81,311.54,42.89,310a2,2,0,0,1-.19-1,.85.85,0,0,1,.13-.3,1.93,1.93,0,0,1,.6-.55l17-10.79L84.73,313V302.81l-16.46-10.7,16.46-10.75v-10L61,286.8,34.91,271.65v10l18.16,10.43-12.77,8.2a14.59,14.59,0,0,0-4.24,3.79,8.25,8.25,0,0,0-1.35,4.76,8.54,8.54,0,0,0,.36,2.25,9.22,9.22,0,0,0,.87,2.14l.66,1.09Z"/><path class="cls-1" d="M60.89,367.77A61,61,0,0,1,0,306.89v-246a60.89,60.89,0,1,1,121.77,0v246A61,61,0,0,1,60.89,367.77Zm0-357A50.17,50.17,0,0,0,10.77,60.89v246a50.12,50.12,0,0,0,100.23,0v-246A50.17,50.17,0,0,0,60.89,10.77Z"/></svg>