<svg id="Layer_1" data-name="Layer 1" xmlns="http://www.w3.org/2000/svg" viewBox="0 0 121.77 370"><defs><style>.cls-1{fill:#534741;}.cls-2{fill:#d1184d;}</style></defs><polygon class="cls-1" points="34.91 53.89 34.91 62.49 56.44 62.49 56.44 81.43 64.77 81.43 64.77 62.49 76.39 62.49 76.39 87.42 84.72 87.42 84.72 53.89 34.91 53.89"/><polygon class="cls-2" points="81.21 112.42 78.82 106.42 85.41 106.78 85.41 97.94 78.87 98.3 81.19 92.4 72.76 89.62 71.24 95.49 66.74 91.77 61.42 98.9 66.82 102.4 61.6 105.8 66.63 112.97 71.2 109.25 72.77 114.98 81.21 112.42"/><path class="cls-1" d="M62.41,144.62l22.93-18.28v-4.62H34.91v8.61H66l-.35.28L54.15,140.7l-4.3,3.82,1.2,1.13c2.56,2.42,5.66,5.2,9.22,8.25,2.11,1.82,4.11,3.5,6,5H34.91v8.61H85.34V162.9Z"/><path class="cls-1" d="M62.41,200.74l22.93-18.27v-4.62H34.91v8.6H66l-.35.28L54.15,196.82l-4.3,3.82,1.2,1.13c2.56,2.42,5.66,5.2,9.22,8.26,2.11,1.82,4.11,3.49,6,5H34.91v8.61H85.34V219Z"/><path class="cls-1" d="M42.89,267.12a2,2,0,0,1-.19-1,.85.85,0,0,1,.13-.3,1.93,1.93,0,0,1,.6-.55l17-10.79,24.27,15.62V259.93l-16.46-10.7,16.46-10.76v-10L61,243.92,34.91,228.77v10l18.16,10.44-12.77,8.2a14.72,14.72,0,0,0-4.24,3.78A8.29,8.29,0,0,0,34.71,266a8.54,8.54,0,0,0,.36,2.25,9.41,9.41,0,0,0,.87,2.14l.66,1.09,7.21-2.82Z"/><path class="cls-1" d="M43.81,312.54,42.89,311a2,2,0,0,1-.19-1,.85.85,0,0,1,.13-.3,1.93,1.93,0,0,1,.6-.55l17-10.79L84.73,314V303.81l-16.46-10.7,16.46-10.75v-10L61,287.8,34.91,272.65v10l18.16,10.43-12.77,8.2a14.59,14.59,0,0,0-4.24,3.79,8.25,8.25,0,0,0-1.35,4.76,8.54,8.54,0,0,0,.36,2.25,9.22,9.22,0,0,0,.87,2.14l.66,1.09Z"/><path class="cls-1" d="M60.89,368.77A61,61,0,0,1,0,307.89v-246a60.89,60.89,0,1,1,121.77,0v246A61,61,0,0,1,60.89,368.77Zm0-357A50.17,50.17,0,0,0,10.77,61.89v246a50.12,50.12,0,0,0,100.23,0v-246A50.17,50.17,0,0,0,60.89,11.77Z"/></svg>